<svg width="20" height="20" viewBox="0 0 20 20" fill="none" xmlns="http://www.w3.org/2000/svg">
<g clip-path="url(#clip0_612_169)">
<path d="M6.66675 5.83333C6.66675 6.71739 7.01794 7.56523 7.64306 8.19036C8.26818 8.81548 9.11603 9.16667 10.0001 9.16667C10.8841 9.16667 11.732 8.81548 12.3571 8.19036C12.9822 7.56523 13.3334 6.71739 13.3334 5.83333C13.3334 4.94928 12.9822 4.10143 12.3571 3.47631C11.732 2.85119 10.8841 2.5 10.0001 2.5C9.11603 2.5 8.26818 2.85119 7.64306 3.47631C7.01794 4.10143 6.66675 4.94928 6.66675 5.83333Z" stroke="#C8A953" stroke-linecap="round" stroke-linejoin="round"/>
<path d="M5 17.5V15.8333C5 14.9493 5.35119 14.1014 5.97631 13.4763C6.60143 12.8512 7.44928 12.5 8.33333 12.5H9.58333" stroke="#C8A953" stroke-linecap="round" stroke-linejoin="round"/>
<path d="M12.5 15C12.5 15.663 12.7634 16.2989 13.2322 16.7678C13.7011 17.2366 14.337 17.5 15 17.5C15.663 17.5 16.2989 17.2366 16.7678 16.7678C17.2366 16.2989 17.5 15.663 17.5 15C17.5 14.337 17.2366 13.7011 16.7678 13.2322C16.2989 12.7634 15.663 12.5 15 12.5C14.337 12.5 13.7011 12.7634 13.2322 13.2322C12.7634 13.7011 12.5 14.337 12.5 15Z" stroke="#C8A953" stroke-linecap="round" stroke-linejoin="round"/>
<path d="M16.8333 16.8333L18.3333 18.3333" stroke="#C8A953" stroke-linecap="round" stroke-linejoin="round"/>
</g>
<defs>
<clipPath id="clip0_612_169">
<rect width="20" height="20" fill="white"/>
</clipPath>
</defs>
</svg>
