<svg width="20" height="20" viewBox="0 0 20 20" fill="none" xmlns="http://www.w3.org/2000/svg">
<path d="M9.99992 10.4167C10.23 10.4167 10.4166 10.2301 10.4166 9.99999C10.4166 9.76988 10.23 9.58333 9.99992 9.58333C9.7698 9.58333 9.58325 9.76988 9.58325 9.99999C9.58325 10.2301 9.7698 10.4167 9.99992 10.4167Z" fill="black" stroke="#C8A953" stroke-linecap="round" stroke-linejoin="round"/>
<path d="M4.16675 10C4.16675 10.766 4.31763 11.5246 4.61078 12.2323C4.90394 12.9401 5.33362 13.5831 5.87529 14.1248C6.41697 14.6665 7.06003 15.0962 7.76776 15.3893C8.47549 15.6825 9.23404 15.8333 10.0001 15.8333C10.7661 15.8333 11.5247 15.6825 12.2324 15.3893C12.9401 15.0962 13.5832 14.6665 14.1249 14.1248C14.6665 13.5831 15.0962 12.9401 15.3894 12.2323C15.6825 11.5246 15.8334 10.766 15.8334 10C15.8334 9.23396 15.6825 8.47542 15.3894 7.76768C15.0962 7.05995 14.6665 6.41689 14.1249 5.87522C13.5832 5.33354 12.9401 4.90386 12.2324 4.61071C11.5247 4.31756 10.7661 4.16667 10.0001 4.16667C9.23404 4.16667 8.47549 4.31756 7.76776 4.61071C7.06003 4.90386 6.41697 5.33354 5.87529 5.87522C5.33362 6.41689 4.90394 7.05995 4.61078 7.76768C4.31763 8.47542 4.16675 9.23396 4.16675 10Z" stroke="#C8A953" stroke-linecap="round" stroke-linejoin="round"/>
<path d="M10 2.5V4.16667" stroke="#C8A953" stroke-linecap="round" stroke-linejoin="round"/>
<path d="M2.5 10H4.16667" stroke="#C8A953" stroke-linecap="round" stroke-linejoin="round"/>
<path d="M10 15.8333V17.5" stroke="#C8A953" stroke-linecap="round" stroke-linejoin="round"/>
<path d="M15.8333 10H17.4999" stroke="#C8A953" stroke-linecap="round" stroke-linejoin="round"/>
</svg>
