<svg width="26" height="26" viewBox="0 0 26 26" fill="none" xmlns="http://www.w3.org/2000/svg">
<g clip-path="url(#clip0_234_159)">
<path d="M0.804688 13C0.804687 14.6015 1.12013 16.1873 1.733 17.6669C2.34587 19.1465 3.24417 20.4909 4.37661 21.6234C5.50905 22.7558 6.85345 23.6541 8.33306 24.267C9.81266 24.8799 11.3985 25.1953 13 25.1953C14.6015 25.1953 16.1873 24.8799 17.6669 24.267C19.1465 23.6541 20.4909 22.7558 21.6234 21.6234C22.7558 20.4909 23.6541 19.1465 24.267 17.6669C24.8799 16.1873 25.1953 14.6015 25.1953 13C25.1953 9.7656 23.9105 6.66368 21.6234 4.37661C19.3363 2.08955 16.2344 0.804687 13 0.804688C9.7656 0.804687 6.66368 2.08955 4.37661 4.37661C2.08955 6.66368 0.804688 9.7656 0.804688 13Z" stroke="#C8A953" stroke-linecap="round" stroke-linejoin="round"/>
<path d="M13 7.57966V12.9998" stroke="#C8A953" stroke-linecap="round" stroke-linejoin="round"/>
<path d="M13 18.4203H13.0131" stroke="#C8A953" stroke-linecap="round" stroke-linejoin="round"/>
</g>
<defs>
<clipPath id="clip0_234_159">
<rect width="26" height="26" fill="white"/>
</clipPath>
</defs>
</svg>
