<svg width="20" height="20" viewBox="0 0 20 20" fill="none" xmlns="http://www.w3.org/2000/svg">
<path d="M9.16675 9.99999C9.16675 10.221 9.25455 10.433 9.41083 10.5892C9.56711 10.7455 9.77907 10.8333 10.0001 10.8333C10.2211 10.8333 10.4331 10.7455 10.5893 10.5892C10.7456 10.433 10.8334 10.221 10.8334 9.99999C10.8334 9.77898 10.7456 9.56701 10.5893 9.41073C10.4331 9.25445 10.2211 9.16666 10.0001 9.16666C9.77907 9.16666 9.56711 9.25445 9.41083 9.41073C9.25455 9.56701 9.16675 9.77898 9.16675 9.99999Z" stroke="#C8A953" stroke-linecap="round" stroke-linejoin="round"/>
<path d="M9.99992 5.83334C9.17583 5.83334 8.37025 6.07771 7.68504 6.53555C6.99984 6.99339 6.46579 7.64414 6.15042 8.4055C5.83506 9.16686 5.75254 10.0046 5.91332 10.8129C6.07409 11.6211 6.47092 12.3636 7.05364 12.9463C7.63636 13.529 8.37879 13.9258 9.18704 14.0866C9.9953 14.2474 10.8331 14.1649 11.5944 13.8495C12.3558 13.5341 13.0065 13.0001 13.4644 12.3149C13.9222 11.6297 14.1666 10.8241 14.1666 10" stroke="#C8A953" stroke-linecap="round" stroke-linejoin="round"/>
<path d="M10.8332 2.54585C9.2883 2.37252 7.72767 2.68358 6.36724 3.43599C5.00681 4.1884 3.91381 5.34498 3.23944 6.74573C2.56507 8.14649 2.34265 9.72219 2.60296 11.2549C2.86326 12.7876 3.59342 14.2015 4.69244 15.3011C5.79146 16.4006 7.20501 17.1315 8.73757 17.3926C10.2701 17.6537 11.8459 17.432 13.247 16.7584C14.6481 16.0847 15.8053 14.9923 16.5583 13.6322C17.3114 12.2722 17.6233 10.7117 17.4507 9.16668" stroke="#C8A953" stroke-linecap="round" stroke-linejoin="round"/>
<path d="M12.5 5V7.5H15L17.5 5H15V2.5L12.5 5Z" stroke="#C8A953" stroke-linecap="round" stroke-linejoin="round"/>
<path d="M12.5 7.5L10 10" stroke="#C8A953" stroke-linecap="round" stroke-linejoin="round"/>
</svg>
