<svg width="20" height="20" viewBox="0 0 20 20" fill="none" xmlns="http://www.w3.org/2000/svg">
<g clip-path="url(#clip0_612_159)">
<path d="M6.80005 12.0166L2.80005 6.11665C2.50005 5.61665 2.60005 4.81665 3.20005 4.41665C3.80005 4.01665 4.50005 4.21665 4.90005 4.71665L8.40005 9.91665" stroke="#C8A953" stroke-miterlimit="3.3333" stroke-linecap="round" stroke-linejoin="round"/>
<path d="M12.3001 6.71662C11.9001 6.11662 12.1001 5.41662 12.7001 5.01662C13.3001 4.61662 14.0001 4.81662 14.4001 5.31662L16.5001 8.41662C18.1001 10.7166 17.5001 13.8166 15.2001 15.3166L13.8001 16.2166L13.9001 16.1166C12.5001 17.0166 10.7001 17.2166 9.20006 16.6166C9.10006 16.6166 9.00006 16.5166 8.90006 16.5166C8.50006 16.3166 6.80006 15.5166 3.90006 14.1166C3.30006 13.8166 3.00006 13.1166 3.30006 12.5166C3.60006 11.9166 4.30006 11.5166 5.00006 11.6166L6.70006 11.9166" stroke="#C8A953" stroke-miterlimit="3.3333" stroke-linecap="round" stroke-linejoin="round"/>
<path d="M5.4 5.41661L4.4 4.01661C4 3.51661 4.2 2.71661 4.8 2.31661C5.4 1.91661 6.1 2.11661 6.5 2.61661L10.5 8.51661" stroke="#C8A953" stroke-miterlimit="3.3333" stroke-linecap="round" stroke-linejoin="round"/>
<path d="M7.40014 4.01661C7.10014 3.41661 7.20014 2.61661 7.80014 2.31661C8.40014 1.91661 9.10014 2.11661 9.50014 2.61661L12.6001 7.11661" stroke="#C8A953" stroke-miterlimit="3.3333" stroke-linecap="round" stroke-linejoin="round"/>
<path d="M5.3999 17.6166C5.3999 17.6166 7.2999 19.3166 9.3999 19.2166" stroke="#C8A953" stroke-miterlimit="3.3333" stroke-linecap="round" stroke-linejoin="round"/>
<path d="M12.6001 2.01661C12.6001 2.01661 14.3001 1.81661 15.8001 3.41661" stroke="#C8A953" stroke-miterlimit="3.3333" stroke-linecap="round" stroke-linejoin="round"/>
</g>
<defs>
<clipPath id="clip0_612_159">
<rect width="20" height="20" fill="white"/>
</clipPath>
</defs>
</svg>
