<svg width="20" height="20" viewBox="0 0 20 20" fill="none" xmlns="http://www.w3.org/2000/svg">
<g clip-path="url(#clip0_613_570)">
<path d="M14.3751 5.625H11.2501L7.68293 9.08516C7.61661 9.15144 7.56606 9.23179 7.53501 9.32026C7.50397 9.40872 7.49322 9.50305 7.50358 9.59623C7.51393 9.68941 7.54512 9.77908 7.59483 9.85857C7.64454 9.93807 7.71149 10.0054 7.79074 10.0555C9.15871 10.9297 11.0157 10.8695 12.5001 9.375L15.6251 11.875L16.8751 10.625" stroke="#C8A953" stroke-linecap="round" stroke-linejoin="round"/>
<path d="M15.625 11.875L12.5 15L7.5 13.75L3.125 10.625" stroke="#C8A953" stroke-linecap="round" stroke-linejoin="round"/>
<path d="M4.375 15L6.25 16.25L8.75 16.875" stroke="#C8A953" stroke-linecap="round" stroke-linejoin="round"/>
<path d="M5.625 5.625L10 4.375L14.375 5.625" stroke="#C8A953" stroke-linecap="round" stroke-linejoin="round"/>
<path d="M2.84541 4.93437L0.904785 8.81562C0.868003 8.88907 0.846059 8.96905 0.84021 9.05098C0.83436 9.13292 0.84472 9.2152 0.870696 9.29313C0.896672 9.37106 0.937755 9.4431 0.991596 9.50514C1.04544 9.56718 1.11098 9.618 1.18447 9.65469L3.1251 10.625L5.6251 5.625L3.68447 4.65469C3.61102 4.6179 3.53105 4.59596 3.44911 4.59011C3.36718 4.58426 3.28489 4.59462 3.20696 4.6206C3.12904 4.64657 3.05699 4.68766 2.99495 4.7415C2.93292 4.79534 2.8821 4.86088 2.84541 4.93437Z" stroke="#C8A953" stroke-linecap="round" stroke-linejoin="round"/>
<path d="M16.3156 4.65469L14.375 5.625L16.875 10.625L18.8156 9.65469C18.8891 9.618 18.9547 9.56718 19.0085 9.50514C19.0623 9.4431 19.1034 9.37106 19.1294 9.29313C19.1554 9.2152 19.1657 9.13292 19.1599 9.05098C19.154 8.96905 19.1321 8.88907 19.0953 8.81562L17.1547 4.93437C17.118 4.86088 17.0672 4.79534 17.0051 4.7415C16.9431 4.68766 16.8711 4.64657 16.7931 4.6206C16.7152 4.59462 16.6329 4.58426 16.551 4.59011C16.4691 4.59596 16.3891 4.6179 16.3156 4.65469Z" stroke="#C8A953" stroke-linecap="round" stroke-linejoin="round"/>
</g>
<defs>
<clipPath id="clip0_613_570">
<rect width="20" height="20" fill="white"/>
</clipPath>
</defs>
</svg>
