<svg width="24" height="24" viewBox="0 0 24 24" fill="none" xmlns="http://www.w3.org/2000/svg">
<path d="M6 4H5C4.46957 4 3.96086 4.21071 3.58579 4.58579C3.21071 4.96086 3 5.46957 3 6V9.5C3 10.9587 3.57946 12.3576 4.61091 13.3891C5.64236 14.4205 7.04131 15 8.5 15C9.95869 15 11.3576 14.4205 12.3891 13.3891C13.4205 12.3576 14 10.9587 14 9.5V6C14 5.46957 13.7893 4.96086 13.4142 4.58579C13.0391 4.21071 12.5304 4 12 4H11" stroke="#C8A953" stroke-width="2" stroke-linecap="round" stroke-linejoin="round"/>
<path d="M8 15C8 15.7879 8.15519 16.5681 8.45672 17.2961C8.75825 18.0241 9.20021 18.6855 9.75736 19.2426C10.3145 19.7998 10.9759 20.2417 11.7039 20.5433C12.4319 20.8448 13.2121 21 14 21C14.7879 21 15.5681 20.8448 16.2961 20.5433C17.0241 20.2417 17.6855 19.7998 18.2426 19.2426C18.7998 18.6855 19.2417 18.0241 19.5433 17.2961C19.8448 16.5681 20 15.7879 20 15V12" stroke="#C8A953" stroke-width="2" stroke-linecap="round" stroke-linejoin="round"/>
<path d="M11 3V5" stroke="#C8A953" stroke-width="2" stroke-linecap="round" stroke-linejoin="round"/>
<path d="M6 3V5" stroke="#C8A953" stroke-width="2" stroke-linecap="round" stroke-linejoin="round"/>
<path d="M18 10C18 10.5304 18.2107 11.0391 18.5858 11.4142C18.9609 11.7893 19.4696 12 20 12C20.5304 12 21.0391 11.7893 21.4142 11.4142C21.7893 11.0391 22 10.5304 22 10C22 9.46957 21.7893 8.96086 21.4142 8.58579C21.0391 8.21071 20.5304 8 20 8C19.4696 8 18.9609 8.21071 18.5858 8.58579C18.2107 8.96086 18 9.46957 18 10Z" stroke="#C8A953" stroke-width="2" stroke-linecap="round" stroke-linejoin="round"/>
</svg>
