<svg width="53" height="53" viewBox="0 0 53 53" fill="none" xmlns="http://www.w3.org/2000/svg">
<rect x="0.5" y="0.5" width="52" height="52" rx="26" stroke="#C8A953"/>
<path fill-rule="evenodd" clip-rule="evenodd" d="M27.2791 13.6194C24.7455 16.1529 24.4994 19.7826 26.4561 21.7392C28.4127 23.6959 32.0425 23.4498 34.576 20.9163C37.1095 18.3828 37.3556 14.753 35.3989 12.7964C33.4423 10.8398 29.8126 11.0858 27.2791 13.6194ZM25.7576 22.4377C23.2985 19.9786 23.7893 15.7121 26.5806 12.9209C29.3718 10.1297 33.6383 9.63879 36.0974 12.0979C38.5565 14.557 38.0657 18.8236 35.2745 21.6148C32.4833 24.406 28.2167 24.8968 25.7576 22.4377Z" fill="#C8A953"/>
<path fill-rule="evenodd" clip-rule="evenodd" d="M32.0855 18.4229C29.5519 20.9564 29.3058 24.5861 31.2625 26.5427C33.2191 28.4993 36.8488 28.2532 39.3823 25.7197C41.9159 23.1862 42.1619 19.5565 40.2053 17.5999C38.2487 15.6432 34.619 15.8893 32.0855 18.4229ZM30.564 27.2412C28.1049 24.7821 28.5957 20.5156 31.387 17.7243C34.1782 14.9331 38.4447 14.4423 40.9038 16.9014C43.3629 19.3605 42.872 23.627 40.0808 26.4182C37.2896 29.2094 33.0231 29.7003 30.564 27.2412Z" fill="#C8A953"/>
<path fill-rule="evenodd" clip-rule="evenodd" d="M13.6177 27.2804C11.0842 29.814 10.8381 33.4437 12.7948 35.4004C14.7514 37.357 18.3811 37.1109 20.9146 34.5774C23.4482 32.0438 23.6942 28.4141 21.7376 26.4575C19.781 24.5009 16.1512 24.7469 13.6177 27.2804ZM12.0963 36.0989C9.63717 33.6398 10.128 29.3732 12.9192 26.5819C15.7104 23.7907 19.977 23.2999 22.4361 25.759C24.8952 28.2181 24.4043 32.4846 21.6131 35.2759C18.8219 38.0671 14.5554 38.558 12.0963 36.0989Z" fill="#C8A953"/>
<path fill-rule="evenodd" clip-rule="evenodd" d="M31.2614 26.4544C29.3048 28.411 29.5509 32.0408 32.0844 34.5743C34.618 37.1079 38.2476 37.3539 40.2043 35.3973C42.1609 33.4406 41.9148 29.811 39.3813 27.2774C36.8478 24.7439 33.218 24.4978 31.2614 26.4544ZM31.3859 35.2728C28.5947 32.4816 28.1038 28.215 30.5629 25.7559C33.022 23.2968 37.2886 23.7877 40.0798 26.5789C42.871 29.3702 43.3619 33.6367 40.9028 36.0958C38.4437 38.5549 34.1771 38.0641 31.3859 35.2728Z" fill="#C8A953"/>
<path fill-rule="evenodd" clip-rule="evenodd" d="M18.4263 32.0841C15.8927 34.6177 15.6467 38.2473 17.6033 40.204C19.5599 42.1606 23.1897 41.9146 25.7232 39.381C28.2567 36.8475 28.5028 33.2178 26.5461 31.2611C24.5895 29.3045 20.9598 29.5506 18.4263 32.0841ZM16.9048 40.9025C14.4457 38.4434 14.9366 34.1768 17.7278 31.3856C20.519 28.5944 24.7855 28.1035 27.2446 30.5626C29.7037 33.0217 29.2129 37.2883 26.4217 40.0795C23.6305 42.8708 19.3639 43.3616 16.9048 40.9025Z" fill="#C8A953"/>
<path fill-rule="evenodd" clip-rule="evenodd" d="M26.459 31.2631C24.5024 33.2198 24.7484 36.8495 27.282 39.383C29.8155 41.9165 33.4453 42.1626 35.4019 40.206C37.3585 38.2494 37.1124 34.6197 34.5789 32.0861C32.0453 29.5526 28.4157 29.3065 26.459 31.2631ZM26.5835 40.0815C23.7922 37.2903 23.3014 33.0237 25.7605 30.5646C28.2196 28.1056 32.4861 28.5964 35.2774 31.3876C38.0686 34.1788 38.5595 38.4454 36.1004 40.9045C33.6413 43.3636 29.3747 42.8727 26.5835 40.0815Z" fill="#C8A953"/>
<path fill-rule="evenodd" clip-rule="evenodd" d="M17.6022 12.794C15.6456 14.7507 15.8916 18.3803 18.4252 20.9139C20.9587 23.4474 24.5884 23.6935 26.5451 21.7369C28.5017 19.7803 28.2556 16.1505 25.7221 13.617C23.1885 11.0835 19.5588 10.8374 17.6022 12.794ZM17.7267 21.6124C14.9354 18.8212 14.4446 14.5546 16.9037 12.0955C19.3628 9.63644 23.6293 10.1273 26.4206 12.9185C29.2118 15.7097 29.7027 19.9763 27.2436 22.4354C24.7845 24.8945 20.5179 24.4036 17.7267 21.6124Z" fill="#C8A953"/>
<path fill-rule="evenodd" clip-rule="evenodd" d="M12.7969 17.6034C10.8403 19.56 11.0863 23.1897 13.6199 25.7232C16.1534 28.2568 19.7831 28.5028 21.7397 26.5462C23.6964 24.5896 23.4503 20.9599 20.9168 18.4263C18.3832 15.8928 14.7535 15.6468 12.7969 17.6034ZM12.9214 26.4217C10.1301 23.6305 9.63932 19.364 12.0984 16.9049C14.5575 14.4458 18.824 14.9366 21.6153 17.7278C24.4065 20.5191 24.8973 24.7856 22.4382 27.2447C19.9791 29.7038 15.7126 29.213 12.9214 26.4217Z" fill="#C8A953"/>
<path fill-rule="evenodd" clip-rule="evenodd" d="M40.1829 12.7993C40.3758 12.9922 40.3758 13.3049 40.1829 13.4978L37.5489 16.1319C37.356 16.3248 37.0432 16.3248 36.8504 16.1319C36.6575 15.939 36.6575 15.6263 36.8504 15.4334L39.4844 12.7993C39.6773 12.6064 39.99 12.6064 40.1829 12.7993Z" fill="#C8A953"/>
<path fill-rule="evenodd" clip-rule="evenodd" d="M16.185 36.7973C16.3778 36.9902 16.3778 37.3029 16.1849 37.4958L13.5509 40.1297C13.358 40.3226 13.0453 40.3226 12.8524 40.1297C12.6595 39.9368 12.6595 39.6241 12.8524 39.4312L15.4865 36.7973C15.6793 36.6044 15.9921 36.6044 16.185 36.7973Z" fill="#C8A953"/>
<path fill-rule="evenodd" clip-rule="evenodd" d="M36.8503 36.7973C37.0432 36.6044 37.356 36.6044 37.5488 36.7973L40.1829 39.4312C40.3758 39.6241 40.3758 39.9368 40.1829 40.1297C39.99 40.3226 39.6773 40.3226 39.4844 40.1297L36.8504 37.4958C36.6575 37.3029 36.6575 36.9902 36.8503 36.7973Z" fill="#C8A953"/>
<path fill-rule="evenodd" clip-rule="evenodd" d="M12.8524 12.7993C13.0453 12.6064 13.358 12.6064 13.5509 12.7993L16.1849 15.4334C16.3778 15.6263 16.3778 15.939 16.1849 16.1319C15.9921 16.3248 15.6793 16.3248 15.4864 16.1319L12.8524 13.4978C12.6595 13.3049 12.6595 12.9922 12.8524 12.7993Z" fill="#C8A953"/>
<path fill-rule="evenodd" clip-rule="evenodd" d="M9.51317 26.5004C9.51317 26.2276 9.73431 26.0065 10.0071 26.0065L13.7321 26.0065C14.0049 26.0065 14.226 26.2276 14.226 26.5004C14.226 26.7732 14.0049 26.9943 13.7321 26.9943L10.0071 26.9943C9.73431 26.9943 9.51317 26.7732 9.51317 26.5004Z" fill="#C8A953"/>
<path fill-rule="evenodd" clip-rule="evenodd" d="M38.7748 26.5004C38.7748 26.2276 38.9959 26.0065 39.2687 26.0065L42.9937 26.0065C43.2665 26.0065 43.4876 26.2276 43.4876 26.5004C43.4876 26.7732 43.2665 26.9943 42.9937 26.9943L39.2687 26.9943C38.9959 26.9943 38.7748 26.7732 38.7748 26.5004Z" fill="#C8A953"/>
<path fill-rule="evenodd" clip-rule="evenodd" d="M26.5178 8.73428C26.7906 8.73428 27.0118 8.95542 27.0118 9.2282V14.0062C27.0118 14.279 26.7906 14.5001 26.5178 14.5001C26.2451 14.5001 26.0239 14.279 26.0239 14.0062V9.2282C26.0239 8.95542 26.2451 8.73428 26.5178 8.73428Z" fill="#C8A953"/>
<path fill-rule="evenodd" clip-rule="evenodd" d="M26.5178 38.429C26.7906 38.429 27.0118 38.6502 27.0118 38.9229V43.7009C27.0118 43.9737 26.7906 44.1949 26.5178 44.1949C26.2451 44.1949 26.0239 43.9737 26.0239 43.7009V38.9229C26.0239 38.6502 26.2451 38.429 26.5178 38.429Z" fill="#C8A953"/>
</svg>
