<svg width="230" height="69" viewBox="0 0 230 69" fill="none" xmlns="http://www.w3.org/2000/svg">
<path d="M50.2136 24.3099C55.2627 19.2607 55.9614 11.7732 51.7742 7.586C47.5871 3.39885 40.0996 4.09765 35.0505 9.14679C30.0013 14.1959 29.3025 21.6834 33.4897 25.8705C37.6768 30.0577 45.1644 29.359 50.2136 24.3099Z" stroke="#C8A953" stroke-width="1.87339" stroke-miterlimit="10" stroke-linecap="round" stroke-linejoin="round"/>
<path d="M59.3287 33.4194C64.3778 28.3702 65.0766 20.8828 60.8895 16.6956C56.7023 12.5085 49.2148 13.2073 44.1657 18.2564C39.1166 23.3055 38.4178 30.793 42.6049 34.9802C46.7921 39.1673 54.2795 38.4685 59.3287 33.4194Z" stroke="#C8A953" stroke-width="1.87339" stroke-miterlimit="10" stroke-linecap="round" stroke-linejoin="round"/>
<path d="M24.3054 50.2177C29.3545 45.1686 30.0533 37.6811 25.8661 33.494C21.679 29.3068 14.1914 30.0055 9.14227 35.0546C4.09313 40.1038 3.39445 47.5913 7.5816 51.7785C11.7688 55.9657 19.2562 55.2669 24.3054 50.2177Z" stroke="#C8A953" stroke-width="1.87339" stroke-miterlimit="10" stroke-linecap="round" stroke-linejoin="round"/>
<path d="M60.8876 51.7727C65.0747 47.5855 64.376 40.098 59.3269 35.0489C54.2777 29.9998 46.7902 29.3009 42.603 33.4881C38.4158 37.6752 39.1147 45.1628 44.1638 50.2119C49.213 55.2611 56.7004 55.9598 60.8876 51.7727Z" stroke="#C8A953" stroke-width="1.87339" stroke-miterlimit="10" stroke-linecap="round" stroke-linejoin="round"/>
<path d="M33.4245 59.3277C38.4736 54.2786 39.1723 46.791 34.9852 42.6038C30.798 38.4167 23.3105 39.1155 18.2614 44.1646C13.2123 49.2138 12.5135 56.7012 16.7006 60.8884C20.8878 65.0755 28.3754 64.3768 33.4245 59.3277Z" stroke="#C8A953" stroke-width="1.87339" stroke-miterlimit="10" stroke-linecap="round" stroke-linejoin="round"/>
<path d="M51.7802 60.8923C55.9673 56.7051 55.2685 49.2176 50.2193 44.1684C45.1702 39.1193 37.6827 38.4205 33.4956 42.6077C29.3084 46.7948 30.0072 54.2823 35.0563 59.3314C40.1054 64.3806 47.593 65.0794 51.7802 60.8923Z" stroke="#C8A953" stroke-width="1.87339" stroke-miterlimit="10" stroke-linecap="round" stroke-linejoin="round"/>
<path d="M34.9833 25.8662C39.1704 21.679 38.4716 14.1914 33.4224 9.14229C28.3733 4.09316 20.8859 3.39442 16.6987 7.58157C12.5115 11.7687 13.2103 19.2562 18.2594 24.3053C23.3086 29.3545 30.7961 30.0533 34.9833 25.8662Z" stroke="#C8A953" stroke-width="1.87339" stroke-miterlimit="10" stroke-linecap="round" stroke-linejoin="round"/>
<path d="M25.8701 34.9868C30.0573 30.7996 29.3585 23.3122 24.3094 18.2631C19.2603 13.2139 11.7728 12.5152 7.58567 16.7023C3.39851 20.8895 4.09725 28.3769 9.14638 33.4261C14.1955 38.4752 21.683 39.174 25.8701 34.9868Z" stroke="#C8A953" stroke-width="1.87339" stroke-miterlimit="10" stroke-linecap="round" stroke-linejoin="round"/>
<path d="M59.5227 8.91626L54.5273 13.9116" stroke="#C8A953" stroke-width="1.87339" stroke-miterlimit="10" stroke-linecap="round" stroke-linejoin="round"/>
<path d="M14.011 54.4277L9.01562 59.4229" stroke="#C8A953" stroke-width="1.87339" stroke-miterlimit="10" stroke-linecap="round" stroke-linejoin="round"/>
<path d="M59.5227 59.423L54.5273 54.4277" stroke="#C8A953" stroke-width="1.87339" stroke-miterlimit="10" stroke-linecap="round" stroke-linejoin="round"/>
<path d="M14.011 13.9116L9.01562 8.91626" stroke="#C8A953" stroke-width="1.87339" stroke-miterlimit="10" stroke-linecap="round" stroke-linejoin="round"/>
<path d="M10.0215 34.2375L2.95703 34.2375" stroke="#C8A953" stroke-width="1.87339" stroke-miterlimit="10" stroke-linecap="round" stroke-linejoin="round"/>
<path d="M65.5156 34.2375L58.4512 34.2375" stroke="#C8A953" stroke-width="1.87339" stroke-miterlimit="10" stroke-linecap="round" stroke-linejoin="round"/>
<path d="M34.2695 10.5428V1.48145" stroke="#C8A953" stroke-width="1.87339" stroke-miterlimit="10" stroke-linecap="round" stroke-linejoin="round"/>
<path d="M34.2695 66.858V57.7966" stroke="#C8A953" stroke-width="1.87339" stroke-miterlimit="10" stroke-linecap="round" stroke-linejoin="round"/>
<path d="M93.1724 41.9983H93.7875V42.463H83.5371V41.9983H84.1248C84.5141 42.007 84.9009 41.9335 85.26 41.7828C85.6191 41.6321 85.9425 41.4075 86.209 41.1236C86.7683 40.584 87.0986 39.85 87.1316 39.0735V13.017C87.1225 12.626 87.0363 12.2407 86.878 11.883C86.7197 11.5254 86.4924 11.2024 86.209 10.9327C85.9383 10.6561 85.6136 10.4382 85.255 10.2924C84.8964 10.1467 84.5117 10.0762 84.1248 10.0854H83.5371V9.62075H93.7875V10.0854H93.1724C92.7826 10.0774 92.3952 10.1483 92.0335 10.2939C91.6717 10.4396 91.3432 10.6568 91.0677 10.9327C90.5067 11.4833 90.183 12.2312 90.1657 13.017V39.0735C90.1643 39.4568 90.2411 39.8363 90.3915 40.1888C90.5419 40.5413 90.7627 40.8594 91.0404 41.1236C91.3182 41.4059 91.6504 41.6289 92.0169 41.7793C92.3833 41.9296 92.7764 42.0041 93.1724 41.9983ZM132.438 54.2687V54.7333C131.269 55.0208 130.069 55.1675 128.864 55.1706C121.801 55.1706 112.033 47.8456 107.209 42.7022L91.6827 26.1239L102.76 12.2107C102.968 11.982 103.095 11.6916 103.122 11.3839C103.128 11.1495 103.083 10.9166 102.992 10.7005C102.852 10.4694 102.649 10.2827 102.407 10.1618C102.166 10.0409 101.895 9.99076 101.626 10.0172H101.168V9.57971H111.063V10.0172H110.878C109.923 9.98825 108.972 10.1691 108.094 10.5469C107.215 10.9246 106.43 11.4902 105.794 12.2039L94.8603 24.846L110.824 41.8889C112.843 44.0659 117.705 48.4693 123.043 51.5237C125.459 52.9056 129.656 54.2299 132.438 54.255V54.2687Z" fill="white"/>
<path d="M116.96 13.6731C120.318 10.5251 124.662 8.9489 129.992 8.94435C135.322 8.93979 139.666 10.516 143.023 13.6731C146.372 16.7983 148.046 20.9191 148.046 26.0351C148.046 31.1512 146.367 35.2719 143.01 38.3971C139.67 41.5542 135.327 43.1305 129.978 43.1259C124.63 43.1213 120.286 41.5451 116.947 38.3971C113.607 35.2537 111.938 31.133 111.938 26.0351C111.938 20.9373 113.612 16.8166 116.96 13.6731ZM119.53 37.3994C122.186 40.2787 125.673 41.7159 129.992 41.7113C134.311 41.7068 137.789 40.2695 140.427 37.3994C143.078 34.5157 144.411 30.7366 144.411 26.0351C144.411 21.3336 143.078 17.5547 140.427 14.6778C137.775 11.8009 134.276 10.3316 129.992 10.3316C125.707 10.3316 122.188 11.7872 119.53 14.6778C116.871 17.5684 115.573 21.3473 115.573 26.0351C115.573 30.723 116.892 34.5157 119.53 37.3994Z" fill="white"/>
<path d="M151.285 41.9986C151.674 42.0073 152.061 41.9338 152.42 41.7831C152.779 41.6324 153.103 41.4078 153.369 41.1239C153.928 40.5843 154.259 39.8503 154.292 39.0739V13.0379C154.258 12.2616 153.928 11.5278 153.369 10.9878C153.102 10.7049 152.778 10.4809 152.419 10.3303C152.061 10.1797 151.674 10.1057 151.285 10.1131H150.697V9.64844H160.948V10.1131H160.346C159.955 10.1077 159.566 10.18 159.202 10.3258C158.838 10.4715 158.507 10.6878 158.227 10.9623C157.948 11.2368 157.725 11.564 157.573 11.9249C157.421 12.2858 157.341 12.6734 157.34 13.0652V41.0829H164.05C166.373 41.0829 168.15 40.5704 169.367 39.5385C170.745 38.2761 171.795 36.6979 172.428 34.9395H172.886L170.152 42.552H150.697V42.0874L151.285 41.9986Z" fill="white"/>
<path d="M179.125 13.6731C182.478 10.5251 186.822 8.9489 192.157 8.94435C197.492 8.93979 201.835 10.516 205.188 13.6731C208.551 16.7983 210.232 20.9191 210.232 26.0351C210.232 31.1512 208.553 35.2719 205.195 38.3971C201.856 41.5542 197.512 43.1305 192.164 43.1259C186.815 43.1213 182.471 41.5451 179.132 38.3971C175.788 35.2537 174.119 31.133 174.123 26.0351C174.128 20.9373 175.795 16.8166 179.125 13.6731ZM181.695 37.3994C184.346 40.2787 187.833 41.7159 192.157 41.7113C196.48 41.7068 199.959 40.2695 202.592 37.3994C205.243 34.5157 206.576 30.7366 206.576 26.0351C206.576 21.3336 205.243 17.5547 202.592 14.6778C199.94 11.8009 196.476 10.3316 192.157 10.3316C187.838 10.3316 184.346 11.7872 181.695 14.6778C179.043 17.5684 177.738 21.3473 177.738 26.0351C177.738 30.723 179.057 34.5157 181.695 37.3994Z" fill="white"/>
<path d="M212.881 40.5291C212.772 39.6956 212.731 38.8546 212.758 38.0144C212.774 36.6497 213.005 35.2959 213.442 34.003H213.879C213.845 34.3515 213.831 34.6863 213.831 35.0349C213.769 36.7915 214.385 38.5047 215.553 39.8184C216.14 40.4517 216.858 40.9498 217.657 41.2778C218.456 41.6059 219.317 41.7561 220.18 41.7181C221.966 41.7855 223.708 41.1502 225.031 39.9483C225.651 39.3774 226.141 38.681 226.47 37.9056C226.798 37.1302 226.958 36.2937 226.938 35.4518C226.967 34.6288 226.817 33.8094 226.497 33.0505C226.177 32.2917 225.696 31.6116 225.086 31.0578L216.093 22.7004C215.285 21.9931 214.638 21.1195 214.198 20.1395C213.758 19.1594 213.535 18.0959 213.544 17.0216C213.514 15.9335 213.71 14.8508 214.12 13.8423C214.529 12.8337 215.144 11.9211 215.924 11.1621C216.704 10.403 217.634 9.81402 218.653 9.43231C219.673 9.05059 220.76 8.88437 221.847 8.94431C223.205 8.96502 224.558 9.12063 225.886 9.40895H227.71V15.1903H227.314C227.339 14.5251 227.214 13.8626 226.946 13.253C226.679 12.6434 226.276 12.1025 225.769 11.6709C224.676 10.7412 223.275 10.2537 221.84 10.3042C221.097 10.2871 220.357 10.4219 219.667 10.7004C218.978 10.9789 218.352 11.3952 217.829 11.9238C217.299 12.4405 216.882 13.0611 216.603 13.7467C216.324 14.4322 216.19 15.1679 216.209 15.9077C216.206 16.6919 216.372 17.4676 216.695 18.1822C217.018 18.8967 217.491 19.5333 218.082 20.0489L227.314 28.6114C228.111 29.3676 228.735 30.2876 229.144 31.3079C229.552 32.3283 229.734 33.4248 229.678 34.5223C229.716 35.6649 229.522 36.8034 229.107 37.8687C228.693 38.9341 228.066 39.9041 227.266 40.7204C226.426 41.5383 225.426 42.1745 224.329 42.5895C223.232 43.0045 222.062 43.1894 220.89 43.1327C219.404 43.1141 217.926 42.8981 216.496 42.4904C215.138 42.1698 213.89 41.4927 212.881 40.5291Z" fill="white"/>
<path d="M223.525 55.4431V45.6799H224.312V51.6393H224.857L224.438 51.8675L227.5 48.7547H228.553L225.161 52.2035V51.7597L228.781 55.4431H227.729L224.438 52.0958L224.857 52.3367H224.312V55.4431H223.525Z" fill="white"/>
<path d="M213.07 55.4437V48.7552H213.856V49.8774H214.021L213.704 50.2261C213.844 49.926 214.026 49.6576 214.25 49.4209C214.478 49.1842 214.738 48.9983 215.029 48.863C215.325 48.7235 215.646 48.6538 215.993 48.6538C216.111 48.6538 216.228 48.6623 216.342 48.6792C216.456 48.6918 216.544 48.7109 216.608 48.7362L216.285 49.4907C216.238 49.4737 216.175 49.459 216.094 49.4463C216.018 49.4336 215.934 49.4273 215.841 49.4273C215.634 49.4273 215.414 49.4759 215.181 49.5731C214.953 49.6703 214.738 49.8098 214.535 49.9915C214.336 50.169 214.173 50.3867 214.047 50.6445C213.92 50.8981 213.856 51.1834 213.856 51.5004V55.4437H213.07Z" fill="white"/>
<path d="M202.401 55.5451C201.771 55.5451 201.211 55.3972 200.721 55.1013C200.235 54.8012 199.85 54.3913 199.567 53.8714C199.288 53.3473 199.148 52.7493 199.148 52.0773C199.148 51.4053 199.288 50.8135 199.567 50.3021C199.85 49.7865 200.235 49.3829 200.721 49.0913C201.211 48.7996 201.771 48.6538 202.401 48.6538C203.035 48.6538 203.595 48.7996 204.081 49.0913C204.571 49.3829 204.956 49.7865 205.235 50.3021C205.514 50.8135 205.653 51.4053 205.653 52.0773C205.653 52.7493 205.511 53.3473 205.228 53.8714C204.949 54.3913 204.565 54.8012 204.074 55.1013C203.584 55.3972 203.026 55.5451 202.401 55.5451ZM202.401 54.816C202.878 54.816 203.301 54.6998 203.669 54.4674C204.041 54.2349 204.33 53.9137 204.537 53.5037C204.744 53.0937 204.848 52.6183 204.848 52.0773C204.848 51.5405 204.744 51.0714 204.537 50.6698C204.33 50.2641 204.041 49.9492 203.669 49.7252C203.301 49.5012 202.878 49.3892 202.401 49.3892C201.936 49.3892 201.517 49.5012 201.145 49.7252C200.778 49.9492 200.486 50.2641 200.271 50.6698C200.059 51.0714 199.954 51.5405 199.954 52.0773C199.954 52.6183 200.059 53.0937 200.271 53.5037C200.482 53.9137 200.771 54.2349 201.139 54.4674C201.507 54.6998 201.927 54.816 202.401 54.816Z" fill="white"/>
<path d="M185.496 55.4431L183.492 48.7546H184.329L185.381 52.5078L185.92 54.4287H185.965L186.567 52.6663L187.816 49.2048H188.266L189.502 52.6663L190.124 54.4287H190.155L190.7 52.5078L191.747 48.7546H192.583L190.574 55.4431H189.807L189.046 53.3193L188.069 50.5932H188.019L187.023 53.3193L186.275 55.4431H185.496Z" fill="white"/>
<path d="M176.146 55.5318C175.554 55.5318 175.11 55.3564 174.814 55.0056C174.519 54.6506 174.371 54.1814 174.371 53.5982V46.523H175.157V53.5728C175.157 53.9574 175.243 54.2596 175.417 54.4794C175.59 54.6949 175.837 54.8027 176.159 54.8027C176.251 54.8027 176.347 54.79 176.444 54.7647C176.541 54.7393 176.628 54.7076 176.704 54.6696L177.014 55.3606C176.888 55.4113 176.754 55.4515 176.615 55.4811C176.475 55.5149 176.319 55.5318 176.146 55.5318ZM173.268 49.471V48.7546H176.881V49.471H173.268Z" fill="white"/>
<path d="M163.808 55.5451C163.191 55.5451 162.645 55.4035 162.172 55.1203C161.703 54.8329 161.335 54.4314 161.069 53.9158C160.807 53.4002 160.676 52.7937 160.676 52.0963C160.676 51.4031 160.805 50.7988 161.063 50.2831C161.325 49.7675 161.684 49.3681 162.14 49.0849C162.597 48.7975 163.117 48.6538 163.7 48.6538C164.292 48.6538 164.805 48.7933 165.24 49.0722C165.676 49.347 166.012 49.7168 166.248 50.1817C166.485 50.6424 166.603 51.1517 166.603 51.7096C166.603 51.8321 166.597 51.9589 166.584 52.0899C166.576 52.2167 166.565 52.314 166.553 52.3816H161.284V51.7096H165.824C165.828 51.2785 165.741 50.8875 165.564 50.5367C165.39 50.1859 165.145 49.907 164.828 49.6999C164.516 49.4928 164.144 49.3892 163.713 49.3892C163.277 49.3892 162.888 49.4991 162.546 49.7189C162.204 49.9344 161.933 50.2451 161.735 50.6508C161.536 51.0523 161.437 51.5321 161.437 52.0899C161.437 52.6436 161.536 53.1233 161.735 53.5291C161.933 53.9348 162.21 54.2497 162.565 54.4737C162.924 54.6977 163.336 54.8097 163.801 54.8097C164.093 54.8097 164.361 54.7717 164.606 54.6956C164.852 54.6153 165.069 54.5181 165.259 54.404C165.454 54.2856 165.614 54.1673 165.741 54.0489L166.058 54.7843C165.796 54.9957 165.471 55.1753 165.082 55.3232C164.697 55.4711 164.273 55.5451 163.808 55.5451Z" fill="white"/>
<path d="M148.104 55.4437V48.7552H148.89V49.7125H149.118L148.731 50.0993C148.845 49.8076 149.012 49.5541 149.232 49.3385C149.456 49.1187 149.722 48.9497 150.031 48.8313C150.339 48.713 150.68 48.6538 151.051 48.6538C151.576 48.6538 152.009 48.7658 152.351 48.9898C152.698 49.2096 152.956 49.5076 153.125 49.8837C153.298 50.2599 153.385 50.6783 153.385 51.139V55.4437H152.598V51.3165C152.598 50.6741 152.444 50.1923 152.136 49.871C151.831 49.5456 151.413 49.3829 150.88 49.3829C150.504 49.3829 150.166 49.4653 149.866 49.6301C149.566 49.7907 149.327 50.0147 149.15 50.3021C148.976 50.5853 148.89 50.915 148.89 51.2911V55.4437H148.104Z" fill="white"/>
<path d="M140.049 55.5447C139.855 55.5447 139.688 55.4771 139.548 55.3418C139.413 55.2024 139.345 55.0375 139.345 54.8473C139.345 54.6529 139.413 54.4881 139.548 54.3528C139.688 54.2134 139.855 54.1436 140.049 54.1436C140.239 54.1436 140.402 54.2134 140.537 54.3528C140.677 54.4881 140.747 54.6529 140.747 54.8473C140.747 55.0375 140.677 55.2024 140.537 55.3418C140.402 55.4771 140.239 55.5447 140.049 55.5447Z" fill="white"/>
</svg>
