<svg width="20" height="20" viewBox="0 0 20 20" fill="none" xmlns="http://www.w3.org/2000/svg">
<g clip-path="url(#clip0_612_124)">
<path d="M12.0833 5.41666L14.5833 3C14.9038 2.67953 15.3385 2.49949 15.7917 2.49949C16.2449 2.49949 16.6795 2.67953 17 3C17.3205 3.32047 17.5005 3.75512 17.5005 4.20833C17.5005 4.66154 17.3205 5.09619 17 5.41666L14.5833 7.91666L16.6667 14.1667L14.5833 16.2917L11.6667 10.8333L9.16667 13.3333V15.8333L7.5 17.5L6.25 13.75L2.5 12.5L4.16667 10.8333H6.66667L9.16667 8.33333L3.75 5.41666L5.83333 3.33333L12.0833 5.41666Z" stroke="#C8A953" stroke-linecap="round" stroke-linejoin="round"/>
</g>
<defs>
<clipPath id="clip0_612_124">
<rect width="20" height="20" fill="white"/>
</clipPath>
</defs>
</svg>
