<svg width="20" height="20" viewBox="0 0 20 20" fill="none" xmlns="http://www.w3.org/2000/svg">
<path d="M15 3.33333C15.663 3.33333 16.2989 3.59672 16.7678 4.06556C17.2366 4.5344 17.5 5.17029 17.5 5.83333V12.5C17.5 13.163 17.2366 13.7989 16.7678 14.2678C16.2989 14.7366 15.663 15 15 15H10.8333L6.66667 17.5V15H5C4.33696 15 3.70107 14.7366 3.23223 14.2678C2.76339 13.7989 2.5 13.163 2.5 12.5V5.83333C2.5 5.17029 2.76339 4.5344 3.23223 4.06556C3.70107 3.59672 4.33696 3.33333 5 3.33333H15Z" stroke="#C8A953" stroke-linecap="round" stroke-linejoin="round"/>
<path d="M9.47168 6.58488L12.8867 7.49995L11.9717 10.915" stroke="#C8A953" stroke-linecap="round" stroke-linejoin="round"/>
<path d="M12.8868 7.49996L7.11328 10.8333" stroke="#C8A953" stroke-linecap="round" stroke-linejoin="round"/>
</svg>
