<svg width="17" height="17" viewBox="0 0 17 17" fill="none" xmlns="http://www.w3.org/2000/svg">
<g clip-path="url(#clip0_234_177)">
<path d="M4.75003 8.31341C4.79189 8.42882 4.79189 8.55526 4.75003 8.67067L2.69144 14.6944C2.65463 14.7961 2.64974 14.9066 2.67741 15.0111C2.70509 15.1157 2.764 15.2093 2.8463 15.2794C2.92859 15.3496 3.03033 15.393 3.13794 15.4038C3.24554 15.4146 3.35388 15.3923 3.44847 15.3399L14.6047 8.95888C14.6878 8.91293 14.757 8.84559 14.8052 8.76384C14.8534 8.68209 14.8788 8.58893 14.8788 8.49403C14.8788 8.39913 14.8534 8.30597 14.8052 8.22422C14.757 8.14247 14.6878 8.07513 14.6047 8.02919L3.44847 1.66415C3.35411 1.61138 3.2459 1.58865 3.13828 1.599C3.03066 1.60935 2.92877 1.65229 2.8462 1.72208C2.76363 1.79188 2.70432 1.8852 2.67619 1.98959C2.64806 2.09398 2.65246 2.20447 2.68878 2.3063L4.75003 8.31341Z" stroke="#626B6D" stroke-linecap="round" stroke-linejoin="round"/>
<path d="M9.03125 8.5H4.78125" stroke="#626B6D" stroke-linecap="round" stroke-linejoin="round"/>
</g>
<defs>
<clipPath id="clip0_234_177">
<rect width="17" height="17" fill="white"/>
</clipPath>
</defs>
</svg>
