<svg width="26" height="26" viewBox="0 0 26 26" fill="none" xmlns="http://www.w3.org/2000/svg">
<g clip-path="url(#clip0_234_128)">
<path d="M7.66238 12.9998C7.66238 14.4152 8.22465 15.7726 9.2255 16.7735C10.2263 17.7743 11.5838 18.3366 12.9992 18.3366C14.4146 18.3366 15.772 17.7743 16.7729 16.7735C17.7737 15.7726 18.336 14.4152 18.336 12.9998C18.336 11.5844 17.7737 10.227 16.7729 9.22611C15.772 8.22526 14.4146 7.66299 12.9992 7.66299C11.5838 7.66299 10.2263 8.22526 9.2255 9.22611C8.22465 10.227 7.66238 11.5844 7.66238 12.9998Z" stroke="#C8A953" stroke-linecap="round" stroke-linejoin="round"/>
<path d="M0.992188 13H2.32639M13 0.992188V2.32639M23.6736 13H25.0078M13 23.6736V25.0078M4.46111 4.46111L5.39505 5.39505M21.5389 4.46111L20.6049 5.39505M20.6049 20.6049L21.5389 21.5389M5.39505 20.6049L4.46111 21.5389" stroke="#C8A953" stroke-linecap="round" stroke-linejoin="round"/>
</g>
<defs>
<clipPath id="clip0_234_128">
<rect width="26" height="26" fill="white"/>
</clipPath>
</defs>
</svg>
